<?xml version="1.0" encoding="UTF-8"?> <svg xmlns="http://www.w3.org/2000/svg" id="Layer_1" data-name="Layer 1" viewBox="0 0 101.57 102.06"> <defs> <style>.cls-1,.cls-2{fill:none;stroke-linecap:round;stroke-linejoin:round;stroke-width:3px;}.cls-1{stroke:#000;}.cls-2{stroke:#00a3ff;}</style> </defs> <title>6Artboard 5</title> <path class="cls-1" d="M56.09,1.5h-12A8.15,8.15,0,0,0,36,9.64V37.06a18,18,0,0,0,5,12.49l27,28L95.15,48.86a18,18,0,0,0,4.92-12.37V9.64A8.15,8.15,0,0,0,91.92,1.5H80.18"></path> <path class="cls-1" d="M68,82.89h0c0,9.76-7.13,17.67-15.93,17.67H27.27c-8.8,0-15.93-7.91-15.93-17.67V21"></path> <line class="cls-1" x1="68.03" y1="82.89" x2="68.03" y2="76.35"></line> <line class="cls-1" x1="55.91" y1="65" x2="79.91" y2="65"></line> <circle class="cls-2" cx="11.34" cy="11.34" r="9.84"></circle> </svg> 